<svg width="20" height="20" viewBox="0 0 20 20" fill="none" xmlns="http://www.w3.org/2000/svg">
<path fill-rule="evenodd" clip-rule="evenodd" d="M10.0001 0.46875C4.60734 0.46875 0.234375 4.8409 0.234375 10.2345C0.234375 14.5492 3.03255 18.2098 6.91276 19.5011C7.40082 19.5915 7.58 19.2893 7.58 19.0313C7.58 18.7985 7.57094 18.0292 7.56674 17.2131C4.84991 17.8039 4.27663 16.0609 4.27663 16.0609C3.83239 14.9321 3.19232 14.632 3.19232 14.632C2.30628 14.0259 3.25911 14.0383 3.25911 14.0383C4.23976 14.1072 4.75612 15.0447 4.75612 15.0447C5.62712 16.5377 7.04068 16.106 7.59795 15.8565C7.6856 15.2253 7.93869 14.7945 8.21797 14.5507C6.04887 14.3037 3.76868 13.4663 3.76868 9.7244C3.76868 8.65821 4.15017 7.78705 4.77488 7.10315C4.67348 6.85718 4.33921 5.86392 4.86948 4.51877C4.86948 4.51877 5.68954 4.2563 7.55574 5.51979C8.33473 5.30341 9.17015 5.1949 10.0001 5.19118C10.83 5.1949 11.6661 5.30341 12.4465 5.51979C14.3105 4.2563 15.1294 4.51877 15.1294 4.51877C15.6609 5.86392 15.3265 6.85718 15.2251 7.10315C15.8513 7.78705 16.2302 8.65821 16.2302 9.7244C16.2302 13.4752 13.9456 14.3011 11.771 14.5429C12.1213 14.8459 12.4334 15.4403 12.4334 16.3514C12.4334 17.658 12.4221 18.7097 12.4221 19.0313C12.4221 19.2912 12.5979 19.5957 13.0929 19.4998C16.971 18.2071 19.7656 14.5477 19.7656 10.2345C19.7656 4.8409 15.3933 0.46875 10.0001 0.46875ZM3.89195 14.3802C3.87044 14.4287 3.79411 14.4433 3.72457 14.41C3.65374 14.3781 3.61396 14.312 3.63692 14.2633C3.65795 14.2133 3.73444 14.1994 3.80511 14.2329C3.8761 14.2647 3.91653 14.3315 3.89195 14.3802ZM4.37231 14.8088C4.32574 14.852 4.23469 14.832 4.17292 14.7637C4.10904 14.6956 4.09707 14.6046 4.14429 14.5608C4.19232 14.5176 4.28062 14.5378 4.34466 14.6059C4.40854 14.6748 4.42099 14.7652 4.37231 14.8088ZM4.70186 15.3572C4.64203 15.3988 4.54419 15.3598 4.48371 15.273C4.42387 15.1861 4.42387 15.082 4.485 15.0403C4.54564 14.9985 4.64203 15.0361 4.70332 15.1223C4.76299 15.2106 4.76299 15.3147 4.70186 15.3572ZM5.2592 15.9924C5.20567 16.0514 5.09166 16.0355 5.00821 15.955C4.92283 15.8763 4.89906 15.7645 4.95275 15.7055C5.00692 15.6463 5.12158 15.663 5.20567 15.7428C5.29041 15.8214 5.31628 15.934 5.2592 15.9924ZM5.9795 16.2068C5.95589 16.2833 5.84609 16.318 5.73547 16.2855C5.62502 16.2521 5.55273 16.1625 5.57505 16.0852C5.59801 16.0082 5.7083 15.972 5.81973 16.0067C5.93002 16.0401 6.00246 16.129 5.9795 16.2068ZM6.79924 16.2977C6.80198 16.3783 6.70819 16.4451 6.59208 16.4465C6.47532 16.4491 6.38088 16.3839 6.37958 16.3047C6.37958 16.2233 6.47128 16.1572 6.58803 16.1553C6.70415 16.153 6.79924 16.2177 6.79924 16.2977ZM7.60453 16.2669C7.61844 16.3455 7.53775 16.4262 7.42244 16.4477C7.30908 16.4684 7.20412 16.4198 7.18973 16.3419C7.17566 16.2614 7.25781 16.1807 7.37102 16.1598C7.48648 16.1398 7.58982 16.187 7.60453 16.2669Z" fill="#FFE8D1"/>
</svg>
