<svg width="22" height="22" viewBox="0 0 22 22" fill="none" xmlns="http://www.w3.org/2000/svg">
<path d="M16.5002 7.99891C15.605 7.99853 14.7236 8.21997 13.9348 8.64344C13.8628 8.45386 13.7349 8.29068 13.5679 8.17555C13.401 8.06043 13.203 7.99882 13.0002 7.99891H9.00021C8.86887 7.99883 8.7388 8.02465 8.61744 8.07488C8.49608 8.1251 8.38582 8.19876 8.29294 8.29164C8.20007 8.38451 8.12641 8.49478 8.07618 8.61614C8.02595 8.7375 8.00014 8.86757 8.00022 8.99891V20.9989C8.00014 21.1303 8.02595 21.2603 8.07618 21.3817C8.12641 21.503 8.20006 21.6133 8.29294 21.7062C8.38581 21.7991 8.49608 21.8727 8.61744 21.9229C8.7388 21.9732 8.86887 21.999 9.00021 21.9989H13.0002C13.1316 21.999 13.2616 21.9732 13.383 21.9229C13.5043 21.8727 13.6146 21.7991 13.7075 21.7062C13.8004 21.6133 13.874 21.503 13.9242 21.3817C13.9745 21.2603 14.0003 21.1303 14.0002 20.9989V15.4989C14.0002 15.2337 14.1056 14.9793 14.2931 14.7918C14.4806 14.6043 14.735 14.4989 15.0002 14.4989C15.2654 14.4989 15.5198 14.6043 15.7073 14.7918C15.8949 14.9793 16.0002 15.2337 16.0002 15.4989V20.9989C16.0001 21.1303 16.026 21.2603 16.0762 21.3817C16.1264 21.503 16.2001 21.6133 16.2929 21.7062C16.3858 21.7991 16.4961 21.8727 16.6174 21.9229C16.7388 21.9732 16.8689 21.999 17.0002 21.9989H21.0002C21.1316 21.999 21.2616 21.9732 21.383 21.9229C21.5044 21.8727 21.6146 21.7991 21.7075 21.7062C21.8004 21.6133 21.874 21.503 21.9242 21.3817C21.9745 21.2603 22.0003 21.1303 22.0002 20.9989V13.4989C21.9984 12.0408 21.4184 10.6429 20.3873 9.61182C19.3562 8.58077 17.9583 8.00072 16.5002 7.99891ZM20.0002 19.9989H18.0002V15.4989C18.0002 14.7033 17.6841 13.9402 17.1215 13.3776C16.5589 12.815 15.7959 12.4989 15.0002 12.4989C14.2046 12.4989 13.4415 12.815 12.8789 13.3776C12.3163 13.9402 12.0002 14.7033 12.0002 15.4989V19.9989H10.0002V9.99891H12.0002V10.702C12.0003 10.9092 12.0648 11.1113 12.1847 11.2803C12.3045 11.4493 12.4739 11.5769 12.6694 11.6455C12.865 11.7141 13.077 11.7203 13.2761 11.6633C13.4753 11.6062 13.6519 11.4887 13.7815 11.327C14.2302 10.7571 14.8458 10.3415 15.5422 10.1383C16.2386 9.93508 16.9811 9.95443 17.6659 10.1936C18.3508 10.4328 18.9439 10.8799 19.3624 11.4725C19.7809 12.065 20.0039 12.7735 20.0002 13.4989V19.9989ZM6.00022 7.99891H2.00022C1.86887 7.99883 1.7388 8.02465 1.61744 8.07488C1.49608 8.1251 1.38581 8.19876 1.29294 8.29164C1.20007 8.38451 1.12641 8.49478 1.07618 8.61614C1.02595 8.7375 1.00014 8.86757 1.00022 8.99891V20.9989C1.00014 21.1303 1.02595 21.2603 1.07618 21.3817C1.12641 21.503 1.20006 21.6133 1.29294 21.7062C1.38581 21.7991 1.49608 21.8727 1.61744 21.9229C1.7388 21.9732 1.86887 21.999 2.00022 21.9989H6.00022C6.13156 21.999 6.26163 21.9732 6.38299 21.9229C6.50435 21.8727 6.61462 21.7991 6.70749 21.7062C6.80037 21.6133 6.87402 21.503 6.92425 21.3817C6.97448 21.2603 7.00029 21.1303 7.00022 20.9989V8.99891C7.00029 8.86757 6.97448 8.7375 6.92425 8.61614C6.87402 8.49478 6.80036 8.38451 6.70749 8.29164C6.61462 8.19876 6.50435 8.1251 6.38299 8.07488C6.26163 8.02465 6.13156 7.99883 6.00022 7.99891ZM5.00022 19.9989H3.00022V9.99891H5.00022V19.9989ZM4.01486 0.541909C3.57723 0.515713 3.13883 0.578806 2.72634 0.727354C2.31385 0.875901 1.93589 1.1068 1.61543 1.406C1.29498 1.70521 1.03873 2.06646 0.862274 2.46781C0.685817 2.86915 0.592838 3.3022 0.588992 3.7406C0.585145 4.17901 0.670512 4.61361 0.8399 5.01799C1.00929 5.42237 1.25916 5.78807 1.57431 6.09285C1.88947 6.39763 2.26332 6.63512 2.67314 6.79089C3.08296 6.94665 3.52018 7.01742 3.95822 6.99891H3.98654C4.42533 7.02497 4.86484 6.96129 5.27819 6.81176C5.69155 6.66223 6.07007 6.42998 6.39064 6.12922C6.7112 5.82845 6.96707 5.46548 7.14262 5.06249C7.31817 4.65949 7.4097 4.22494 7.41163 3.78537C7.41356 3.3458 7.32584 2.91046 7.15383 2.50594C6.98183 2.10142 6.72915 1.73622 6.41123 1.43266C6.09332 1.12909 5.71685 0.893534 5.30482 0.740381C4.89279 0.587229 4.45386 0.519696 4.01485 0.541909H4.01486ZM3.98655 4.99891H3.95822C3.78528 5.01991 3.60986 5.00369 3.44371 4.95134C3.27755 4.89899 3.12452 4.81171 2.99486 4.69537C2.8652 4.57903 2.76191 4.43631 2.69193 4.27678C2.62194 4.11726 2.58688 3.94461 2.58909 3.77042C2.58909 3.02432 3.14865 2.5419 4.01486 2.5419C4.18956 2.51861 4.36722 2.53303 4.53588 2.58418C4.70454 2.63534 4.86027 2.72204 4.9926 2.83845C5.12493 2.95486 5.23077 3.09828 5.303 3.25904C5.37524 3.4198 5.41218 3.59418 5.41135 3.77042C5.41135 4.51651 4.85178 4.99891 3.98655 4.99891Z" fill="white"/>
</svg>
