<svg width="1440" height="1254" viewBox="0 0 1440 1254" fill="none" xmlns="http://www.w3.org/2000/svg">
    <g opacity="0.1">
        <path d="M1807 400C1637 563.5 1732 644 1495 712C1258 780 1183 572.313 1183 400C1183 227.687 1322.69 88 1495 88C1667.31 88 1977 236.5 1807 400Z" fill="white" fill-opacity="0.15"/>
        <path d="M1507.13 754.294C1568.95 736.559 1612.85 717.004 1645.68 693.157C1679.52 668.583 1699.03 641.319 1714.63 613.102C1721.05 601.488 1726.75 589.977 1732.53 578.308C1753.6 535.774 1775.72 491.136 1837.5 431.713C1887.68 383.453 1909.05 328.89 1897.25 273.155C1886.21 221.048 1848.21 178.927 1805.56 147.331C1720.07 84.008 1590.34 44 1495 44C1298.39 44 1139 203.387 1139 400C1139 490.589 1158.4 596.608 1214.84 672.397C1243.7 711.153 1282.62 742.394 1333.15 758.17C1383.46 773.877 1441.57 773.105 1507.13 754.294Z" stroke="white" stroke-opacity="0.06" stroke-width="88"/>
    </g>
    <g opacity="0.19">
        <rect opacity="0.08" x="195.953" y="425" width="243.038" height="243.038" rx="40" transform="rotate(45 195.953 425)" fill="white"/>
        <rect opacity="0.08" x="320.938" y="706.214" width="243.038" height="243.038" rx="40" transform="rotate(45 320.938 706.214)" fill="white"/>
        <rect opacity="0.08" x="117.838" y="909.313" width="243.038" height="243.038" rx="40" transform="rotate(45 117.838 909.313)" fill="white"/>
        <rect opacity="0.08" x="-7.14648" y="628.099" width="243.038" height="243.038" rx="40" transform="rotate(45 -7.14648 628.099)" fill="white"/>
    </g>
</svg>