<svg width="3440" height="3021" viewBox="0 0 3440 3021" fill="none" xmlns="http://www.w3.org/2000/svg">
    <g opacity="0.19">
        <rect opacity="0.08" x="3343.36" width="387.442" height="387.442" rx="40" transform="rotate(45 3343.36 0)" fill="white"/>
        <rect opacity="0.08" x="3542.61" y="448.301" width="387.442" height="387.442" rx="40" transform="rotate(45 3542.61 448.301)" fill="white"/>
        <rect opacity="0.08" x="3218.83" y="772.074" width="387.442" height="387.442" rx="40" transform="rotate(45 3218.83 772.074)" fill="white"/>
        <rect opacity="0.08" x="3019.58" y="323.772" width="387.442" height="387.442" rx="40" transform="rotate(45 3019.58 323.772)" fill="white"/>
    </g>
    <g opacity="0.19">
        <rect opacity="0.08" x="245.738" y="1701" width="387.442" height="387.442" rx="40" transform="rotate(45 245.738 1701)" fill="white"/>
        <rect opacity="0.08" x="444.984" y="2149.3" width="387.442" height="387.442" rx="40" transform="rotate(45 444.984 2149.3)" fill="white"/>
        <rect opacity="0.08" x="121.208" y="2473.07" width="387.442" height="387.442" rx="40" transform="rotate(45 121.208 2473.07)" fill="white"/>
        <rect opacity="0.08" x="-78.0371" y="2024.77" width="387.442" height="387.442" rx="40" transform="rotate(45 -78.0371 2024.77)" fill="white"/>
    </g>
    <g opacity="0.1">
        <path d="M-317.634 571.064C-71.9966 334.756 -209.265 218.408 133.183 120.127C475.631 21.8463 584 322.018 584 571.064C584 820.109 382.162 1022 133.183 1022C-115.796 1022 -563.272 807.372 -317.634 571.064Z" fill="white" fill-opacity="0.15"/>
        <path d="M121.045 77.8346C32.8721 103.14 -28.1584 130.614 -73.0434 163.218C-118.93 196.55 -145.405 233.41 -167.039 272.55C-175.897 288.577 -183.895 304.742 -192.102 321.329C-222.709 383.19 -256.228 450.935 -348.139 539.355C-417.226 605.818 -444.163 678.164 -428.88 750.33C-414.365 818.873 -363.846 876.087 -303.901 920.501C-183.838 1009.46 -0.490116 1066 133.183 1066C406.474 1066 628 844.398 628 571.064C628 442.11 600.262 293.789 522.303 189.073C482.681 135.853 429.696 93.49 361.209 72.1022C292.94 50.7821 212.97 51.4524 121.045 77.8346Z" stroke="white" stroke-opacity="0.06" stroke-width="88"/>
    </g>
    <g opacity="0.1">
        <path d="M2776.37 2351.06C3022 2114.76 2884.74 1998.41 3227.18 1900.13C3569.63 1801.85 3678 2102.02 3678 2351.06C3678 2600.11 3476.16 2802 3227.18 2802C2978.2 2802 2530.73 2587.37 2776.37 2351.06Z" fill="white" fill-opacity="0.15"/>
        <path d="M3215.05 1857.83C3126.87 1883.14 3065.84 1910.61 3020.96 1943.22C2975.07 1976.55 2948.6 2013.41 2926.96 2052.55C2918.1 2068.58 2910.11 2084.74 2901.9 2101.33C2871.29 2163.19 2837.77 2230.93 2745.86 2319.35C2676.77 2385.82 2649.84 2458.16 2665.12 2530.33C2679.63 2598.87 2730.15 2656.09 2790.1 2700.5C2910.16 2789.46 3093.51 2846 3227.18 2846C3500.47 2846 3722 2624.4 3722 2351.06C3722 2222.11 3694.26 2073.79 3616.3 1969.07C3576.68 1915.85 3523.7 1873.49 3455.21 1852.1C3386.94 1830.78 3306.97 1831.45 3215.05 1857.83Z" stroke="white" stroke-opacity="0.06" stroke-width="88"/>
    </g>
</svg>