<svg width="1440" height="5151" viewBox="0 0 1440 5151" fill="none" xmlns="http://www.w3.org/2000/svg">
<g opacity="0.1">
<path d="M1811 924C1641 1087.5 1736 1168 1499 1236C1262 1304 1187 1096.31 1187 924C1187 751.687 1326.69 612 1499 612C1671.31 612 1981 760.5 1811 924Z" fill="white" fill-opacity="0.15"/>
<path d="M1511.13 1278.29C1572.95 1260.56 1616.85 1241 1649.68 1217.16C1683.52 1192.58 1703.03 1165.32 1718.63 1137.1C1725.05 1125.49 1730.75 1113.98 1736.53 1102.31C1757.6 1059.77 1779.72 1015.14 1841.5 955.713C1891.68 907.453 1913.05 852.89 1901.25 797.155C1890.21 745.048 1852.21 702.927 1809.56 671.331C1724.07 608.008 1594.34 568 1499 568C1302.39 568 1143 727.387 1143 924C1143 1014.59 1162.4 1120.61 1218.84 1196.4C1247.7 1235.15 1286.62 1266.39 1337.15 1282.17C1387.46 1297.88 1445.57 1297.1 1511.13 1278.29Z" stroke="white" stroke-opacity="0.06" stroke-width="88"/>
</g>
<g opacity="0.19">
<rect opacity="0.08" x="1465.95" y="1528" width="243.038" height="243.038" rx="40" transform="rotate(45 1465.95 1528)" fill="white"/>
<rect opacity="0.08" x="1590.94" y="1809.21" width="243.038" height="243.038" rx="40" transform="rotate(45 1590.94 1809.21)" fill="white"/>
<rect opacity="0.08" x="1387.84" y="2012.31" width="243.038" height="243.038" rx="40" transform="rotate(45 1387.84 2012.31)" fill="white"/>
<rect opacity="0.08" x="1262.85" y="1731.1" width="243.038" height="243.038" rx="40" transform="rotate(45 1262.85 1731.1)" fill="white"/>
</g>
<g opacity="0.19">
<rect opacity="0.08" x="195.953" y="941" width="243.038" height="243.038" rx="40" transform="rotate(45 195.953 941)" fill="white"/>
<rect opacity="0.08" x="320.938" y="1222.21" width="243.038" height="243.038" rx="40" transform="rotate(45 320.938 1222.21)" fill="white"/>
<rect opacity="0.08" x="117.838" y="1425.31" width="243.038" height="243.038" rx="40" transform="rotate(45 117.838 1425.31)" fill="white"/>
<rect opacity="0.08" x="-7.14648" y="1144.1" width="243.038" height="243.038" rx="40" transform="rotate(45 -7.14648 1144.1)" fill="white"/>
</g>
<g opacity="0.1">
<path d="M248 400C78 563.5 173 644 -64 712C-301 780 -376 572.313 -376 400C-376 227.687 -236.313 88 -64 88C108.313 88 418 236.5 248 400Z" fill="white" fill-opacity="0.15"/>
<path d="M-51.8651 754.294C9.94531 736.559 53.8455 717.004 86.6826 693.157C120.522 668.583 140.031 641.319 155.632 613.102C162.053 601.488 167.755 589.977 173.535 578.308C194.604 535.774 216.715 491.136 278.5 431.713C328.679 383.453 350.051 328.89 338.245 273.155C327.208 221.048 289.212 178.927 246.557 147.331C161.07 84.008 31.3369 44 -64 44C-260.613 44 -420 203.387 -420 400C-420 490.589 -400.603 596.608 -344.165 672.397C-315.304 711.153 -276.375 742.394 -225.847 758.17C-175.537 773.877 -117.427 773.105 -51.8651 754.294Z" stroke="white" stroke-opacity="0.06" stroke-width="88"/>
</g>
<g opacity="0.19">
<rect opacity="0.08" x="26.4375" y="4050.02" width="243.038" height="243.038" rx="40" transform="rotate(-135 26.4375 4050.02)" fill="white"/>
<rect opacity="0.08" x="-98.5469" y="3768.81" width="243.038" height="243.038" rx="40" transform="rotate(-135 -98.5469 3768.81)" fill="white"/>
<rect opacity="0.08" x="104.553" y="3565.71" width="243.038" height="243.038" rx="40" transform="rotate(-135 104.553 3565.71)" fill="white"/>
<rect opacity="0.08" x="229.537" y="3846.92" width="243.038" height="243.038" rx="40" transform="rotate(-135 229.537 3846.92)" fill="white"/>
</g>
<g opacity="0.19">
<rect opacity="0.08" x="1288.43" y="3672.02" width="243.038" height="243.038" rx="40" transform="rotate(-135 1288.43 3672.02)" fill="white"/>
<rect opacity="0.08" x="1163.45" y="3390.81" width="243.038" height="243.038" rx="40" transform="rotate(-135 1163.45 3390.81)" fill="white"/>
<rect opacity="0.08" x="1366.55" y="3187.71" width="243.038" height="243.038" rx="40" transform="rotate(-135 1366.55 3187.71)" fill="white"/>
<rect opacity="0.08" x="1491.54" y="3468.92" width="243.038" height="243.038" rx="40" transform="rotate(-135 1491.54 3468.92)" fill="white"/>
</g>
<g opacity="0.19">
<rect opacity="0.08" x="27.4375" y="5150.02" width="243.038" height="243.038" rx="40" transform="rotate(-135 27.4375 5150.02)" fill="white"/>
<rect opacity="0.08" x="-97.5469" y="4868.81" width="243.038" height="243.038" rx="40" transform="rotate(-135 -97.5469 4868.81)" fill="white"/>
<rect opacity="0.08" x="105.553" y="4665.71" width="243.038" height="243.038" rx="40" transform="rotate(-135 105.553 4665.71)" fill="white"/>
<rect opacity="0.08" x="230.537" y="4946.92" width="243.038" height="243.038" rx="40" transform="rotate(-135 230.537 4946.92)" fill="white"/>
</g>
<g opacity="0.1">
<path d="M1236.39 4213.02C1406.39 4049.52 1311.39 3969.02 1548.39 3901.02C1785.39 3833.02 1860.39 4040.71 1860.39 4213.02C1860.39 4385.33 1720.7 4525.02 1548.39 4525.02C1376.08 4525.02 1066.39 4376.52 1236.39 4213.02Z" fill="white" fill-opacity="0.15"/>
<path d="M1536.26 3858.73C1474.45 3876.46 1430.55 3896.02 1397.71 3919.86C1363.87 3944.44 1344.36 3971.7 1328.76 3999.92C1322.34 4011.53 1316.64 4023.04 1310.86 4034.71C1289.79 4077.25 1267.68 4121.88 1205.89 4181.31C1155.71 4229.57 1134.34 4284.13 1146.15 4339.86C1157.18 4391.97 1195.18 4434.09 1237.83 4465.69C1323.32 4529.01 1453.05 4569.02 1548.39 4569.02C1745 4569.02 1904.39 4409.63 1904.39 4213.02C1904.39 4122.43 1884.99 4016.41 1828.56 3940.62C1799.69 3901.87 1760.77 3870.63 1710.24 3854.85C1659.93 3839.14 1601.82 3839.92 1536.26 3858.73Z" stroke="white" stroke-opacity="0.06" stroke-width="88"/>
</g>
<g opacity="0.1">
<path d="M-318.609 2601.23C-148.609 2437.73 -243.609 2357.23 -6.60932 2289.23C230.391 2221.23 305.391 2428.92 305.391 2601.23C305.391 2773.55 165.703 2913.23 -6.60938 2913.23C-178.922 2913.23 -488.609 2764.73 -318.609 2601.23Z" fill="white" fill-opacity="0.15"/>
<path d="M-18.7442 2246.94C-80.5546 2264.68 -124.455 2284.23 -157.292 2308.08C-191.132 2332.65 -210.641 2359.92 -226.241 2388.13C-232.662 2399.75 -238.364 2411.26 -244.144 2422.93C-265.213 2465.46 -287.325 2510.1 -349.11 2569.52C-399.288 2617.78 -420.66 2672.34 -408.854 2728.08C-397.817 2780.19 -359.822 2822.31 -317.166 2853.9C-231.679 2917.23 -101.946 2957.23 -6.60938 2957.23C190.004 2957.23 349.391 2797.85 349.391 2601.23C349.391 2510.65 329.994 2404.63 273.556 2328.84C244.695 2290.08 205.766 2258.84 155.238 2243.06C104.927 2227.36 46.8178 2228.13 -18.7442 2246.94Z" stroke="white" stroke-opacity="0.06" stroke-width="88"/>
</g>
</svg>
