<svg width="20" height="20" viewBox="0 0 20 20" fill="none" xmlns="http://www.w3.org/2000/svg">
<path d="M13.125 6.875H18.125C18.4702 6.875 18.75 6.59518 18.75 6.25C18.75 5.90482 18.4702 5.625 18.125 5.625H13.125C12.7798 5.625 12.5 5.90482 12.5 6.25C12.5 6.59518 12.7798 6.875 13.125 6.875Z" fill="#FFE8D1"/>
<path fill-rule="evenodd" clip-rule="evenodd" d="M18.4609 14.0859C18.4609 14.2518 18.395 14.4109 18.2777 14.5281L18.2769 14.5288C18.2769 14.5288 17.3303 15.474 15.9989 15.6049C15.9989 15.6049 14.6669 15.7358 13.5541 14.9924C13.5541 14.9924 12.4412 14.2489 12.0522 12.9684C12.0522 12.9684 11.9031 12.4775 11.8863 11.9931C11.8788 11.9542 11.875 11.9146 11.875 11.875C11.875 11.8361 11.8786 11.7972 11.8859 11.759C11.8859 11.759 11.9066 11.099 12.1745 10.4509C12.1745 10.4509 12.6859 9.2141 13.8656 8.58206C13.8656 8.58206 15.0453 7.95003 16.3583 8.20949C16.3583 8.20949 17.6713 8.46896 18.5219 9.50222C18.5219 9.50222 19.3726 10.5355 19.375 11.8739C19.3753 12.0396 19.3097 12.1987 19.1927 12.3161C19.0758 12.4336 18.9169 12.4997 18.7511 12.5L18.75 12.5H13.2186C13.2186 12.5 13.2322 12.5525 13.2482 12.605C13.2482 12.605 13.5073 13.4579 14.2484 13.953C14.2484 13.953 14.9896 14.4481 15.8766 14.3609C15.8766 14.3609 16.763 14.2738 17.3933 13.6447L17.3942 13.6438C17.5036 13.5345 17.6495 13.4697 17.8039 13.4618C17.8146 13.4612 17.8253 13.4609 17.8359 13.4609C18.0018 13.4609 18.1609 13.5269 18.2781 13.6442C18.3873 13.7536 18.4522 13.8995 18.4601 14.0539C18.4607 14.0646 18.4609 14.0752 18.4609 14.0859ZM18.0479 11.25H13.2199C13.2199 11.25 13.2635 11.0887 13.3297 10.9285C13.3297 10.9285 13.6702 10.1048 14.4559 9.6839C14.4559 9.6839 15.2416 9.26298 16.116 9.43578C16.116 9.43578 16.9904 9.60857 17.5569 10.2967C17.5569 10.2967 17.9157 10.7326 18.0479 11.25Z" fill="#FFE8D1"/>
<path fill-rule="evenodd" clip-rule="evenodd" d="M9.6875 7.34375C9.6875 7.34375 9.6875 8.48313 8.941 9.31331C8.941 9.31331 9.50635 9.55346 9.97644 10.0236C9.97644 10.0236 10.9375 10.9846 10.9375 12.3438C10.9375 12.3438 10.9375 13.7029 9.97644 14.6639C9.97644 14.6639 9.01539 15.625 7.65625 15.625H2.5C2.15482 15.625 1.875 15.3452 1.875 15V5C1.875 4.65482 2.15482 4.375 2.5 4.375H6.71875C6.71875 4.375 7.94845 4.375 8.81797 5.24453C8.81797 5.24453 9.6875 6.11405 9.6875 7.34375ZM7.93409 8.55909C7.43068 9.0625 6.71875 9.0625 6.71875 9.0625H3.125V5.625H6.71875C7.43068 5.625 7.93409 6.12841 7.93409 6.12841C8.4375 6.63182 8.4375 7.34375 8.4375 7.34375C8.4375 8.05568 7.93409 8.55909 7.93409 8.55909ZM3.125 10.3125V14.375H7.65625C8.49762 14.375 9.09256 13.7801 9.09256 13.7801C9.6875 13.1851 9.6875 12.3438 9.6875 12.3438C9.6875 11.5024 9.09256 10.9074 9.09256 10.9074C8.49762 10.3125 7.65625 10.3125 7.65625 10.3125H3.125Z" fill="#FFE8D1"/>
</svg>
