<svg width="12" height="18" viewBox="0 0 12 18" fill="none" xmlns="http://www.w3.org/2000/svg">
<path fill-rule="evenodd" clip-rule="evenodd" d="M8.65625 5.71875C8.65625 5.71875 10.0154 5.71875 10.9764 6.67981C10.9764 6.67981 11.9375 7.64086 11.9375 9C11.9375 9 11.9375 10.3591 10.9764 11.3202C10.9764 11.3202 10.0154 12.2812 8.65625 12.2812C8.65625 12.2812 7.29711 12.2812 6.33606 11.3202C6.33606 11.3202 5.375 10.3591 5.375 9C5.375 9 5.375 7.64086 6.33606 6.67981C6.33606 6.67981 7.29711 5.71875 8.65625 5.71875ZM8.65625 6.96875C8.65625 6.96875 7.81488 6.96875 7.21994 7.56369C7.21994 7.56369 6.625 8.15863 6.625 9C6.625 9 6.625 9.84137 7.21994 10.4363C7.21994 10.4363 7.81488 11.0312 8.65625 11.0312C8.65625 11.0312 9.49762 11.0313 10.0926 10.4363C10.0926 10.4363 10.6875 9.84137 10.6875 9C10.6875 9 10.6875 8.15863 10.0926 7.56369C10.0926 7.56369 9.49762 6.96875 8.65625 6.96875Z" fill="#FFE8D1"/>
<path fill-rule="evenodd" clip-rule="evenodd" d="M3.34375 6.96875C3.34375 6.96875 1.98461 6.96875 1.02356 6.00769C1.02356 6.00769 0.0625 5.04664 0.0625 3.6875C0.0625 3.6875 0.0625 2.32836 1.02356 1.36731C1.02356 1.36731 1.98461 0.40625 3.34375 0.40625H6C6.34518 0.40625 6.625 0.686072 6.625 1.03125V6.34375C6.625 6.68893 6.34518 6.96875 6 6.96875H3.34375ZM3.34375 5.71875H5.375V1.65625H3.34375C3.34375 1.65625 2.50238 1.65625 1.90744 2.25119C1.90744 2.25119 1.3125 2.84613 1.3125 3.6875C1.3125 3.6875 1.3125 4.52887 1.90744 5.12381C1.90744 5.12381 2.50238 5.71875 3.34375 5.71875Z" fill="#FFE8D1"/>
<path fill-rule="evenodd" clip-rule="evenodd" d="M3.34375 12.2812C3.34375 12.2812 1.98461 12.2813 1.02356 11.3202C1.02356 11.3202 0.0625 10.3591 0.0625 9C0.0625 9 0.0625 7.64086 1.02356 6.67981C1.02356 6.67981 1.98461 5.71875 3.34375 5.71875H6C6.34518 5.71875 6.625 5.99857 6.625 6.34375V11.6562C6.625 12.0014 6.34518 12.2812 6 12.2812H3.34375ZM3.34375 11.0312H5.375V6.96875H3.34375C3.34375 6.96875 2.50238 6.96875 1.90744 7.56369C1.90744 7.56369 1.3125 8.15863 1.3125 9C1.3125 9 1.3125 9.84137 1.90744 10.4363C1.90744 10.4363 2.50238 11.0312 3.34375 11.0312Z" fill="#FFE8D1"/>
<path fill-rule="evenodd" clip-rule="evenodd" d="M8.65625 6.96875H6C5.65482 6.96875 5.375 6.68893 5.375 6.34375V1.03125C5.375 0.686072 5.65482 0.40625 6 0.40625H8.65625C8.65625 0.40625 10.0154 0.40625 10.9764 1.36731C10.9764 1.36731 11.9375 2.32836 11.9375 3.6875C11.9375 3.6875 11.9375 5.04664 10.9764 6.00769C10.9764 6.00769 10.0154 6.96875 8.65625 6.96875ZM8.65625 5.71875C8.65625 5.71875 9.49762 5.71875 10.0926 5.12381C10.0926 5.12381 10.6875 4.52887 10.6875 3.6875C10.6875 3.6875 10.6875 2.84613 10.0926 2.25119C10.0926 2.25119 9.49762 1.65625 8.65625 1.65625H6.625V5.71875H8.65625Z" fill="#FFE8D1"/>
<path fill-rule="evenodd" clip-rule="evenodd" d="M3.34375 11.0312H6.00002C6.3452 11.0312 6.625 11.3111 6.625 11.6562L6.62502 14.3125C6.62502 14.3125 6.62503 15.3079 6.07203 16.1355C6.07203 16.1355 5.51904 16.9631 4.59945 17.344C4.59945 17.344 3.67987 17.7249 2.70363 17.5307C2.70363 17.5307 1.7274 17.3365 1.02358 16.6327C1.02358 16.6327 0.319757 15.9289 0.125573 14.9526C0.125573 14.9526 -0.0686115 13.9764 0.312295 13.0568C0.312295 13.0568 0.693202 12.1372 1.52081 11.5842C1.52081 11.5842 2.34839 11.0312 3.34375 11.0312ZM3.34375 12.2812C3.34375 12.2812 2.7276 12.2812 2.21527 12.6236C2.21527 12.6236 1.70294 12.9659 1.46714 13.5352C1.46714 13.5352 1.23135 14.1044 1.35155 14.7088C1.35155 14.7088 1.47176 15.3131 1.90746 15.7488C1.90746 15.7488 2.34316 16.1845 2.9475 16.3047C2.9475 16.3047 3.55183 16.4249 4.1211 16.1891C4.1211 16.1891 4.69037 15.9533 5.0327 15.441C5.0327 15.441 5.37502 14.9287 5.37502 14.3125V12.2812H3.34375Z" fill="#FFE8D1"/>
</svg>
