<svg width="25" height="25" viewBox="0 0 25 25" fill="none" xmlns="http://www.w3.org/2000/svg">
<path d="M3.35449 11.75C2.94028 11.75 2.60449 12.0858 2.60449 12.5C2.60449 12.9142 2.94028 13.25 3.35449 13.25V11.75ZM5.35449 13.25C5.7687 13.25 6.10449 12.9142 6.10449 12.5C6.10449 12.0858 5.7687 11.75 5.35449 11.75V13.25ZM4.82422 18.9697C4.53133 19.2626 4.53133 19.7374 4.82422 20.0303C5.11711 20.3232 5.59199 20.3232 5.88488 20.0303L4.82422 18.9697ZM7.88488 18.0303C8.17777 17.7374 8.17777 17.2626 7.88488 16.9697C7.59199 16.6768 7.11711 16.6768 6.82422 16.9697L7.88488 18.0303ZM13.1045 19.5C13.1045 19.0858 12.7687 18.75 12.3545 18.75C11.9403 18.75 11.6045 19.0858 11.6045 19.5H13.1045ZM11.6045 21.5C11.6045 21.9142 11.9403 22.25 12.3545 22.25C12.7687 22.25 13.1045 21.9142 13.1045 21.5H11.6045ZM17.8848 16.9697C17.5919 16.6768 17.1171 16.6768 16.8242 16.9697C16.5313 17.2626 16.5313 17.7374 16.8242 18.0303L17.8848 16.9697ZM18.8242 20.0303C19.1171 20.3232 19.5919 20.3232 19.8848 20.0303C20.1777 19.7374 20.1777 19.2626 19.8848 18.9697L18.8242 20.0303ZM5.88482 4.96967C5.59193 4.67678 5.11705 4.67678 4.82416 4.96967C4.53127 5.26256 4.53127 5.73744 4.82416 6.03033L5.88482 4.96967ZM6.82416 8.03033C7.11705 8.32322 7.59193 8.32322 7.88482 8.03033C8.17771 7.73744 8.17771 7.26256 7.88482 6.96967L6.82416 8.03033ZM19.3545 11.75C18.9403 11.75 18.6045 12.0858 18.6045 12.5C18.6045 12.9142 18.9403 13.25 19.3545 13.25V11.75ZM21.3545 13.25C21.7687 13.25 22.1045 12.9142 22.1045 12.5C22.1045 12.0858 21.7687 11.75 21.3545 11.75V13.25ZM16.8241 6.96967C16.5312 7.26256 16.5312 7.73744 16.8241 8.03033C17.117 8.32322 17.5919 8.32322 17.8848 8.03033L16.8241 6.96967ZM19.8848 6.03033C20.1777 5.73744 20.1777 5.26256 19.8848 4.96967C19.5919 4.67678 19.117 4.67678 18.8241 4.96967L19.8848 6.03033ZM13.1045 3.5C13.1045 3.08579 12.7687 2.75 12.3545 2.75C11.9403 2.75 11.6045 3.08579 11.6045 3.5H13.1045ZM11.6045 5.5C11.6045 5.91421 11.9403 6.25 12.3545 6.25C12.7687 6.25 13.1045 5.91421 13.1045 5.5H11.6045ZM14.6045 12.5C14.6045 13.7426 13.5971 14.75 12.3545 14.75V16.25C14.4256 16.25 16.1045 14.5711 16.1045 12.5H14.6045ZM12.3545 14.75C11.1119 14.75 10.1045 13.7426 10.1045 12.5H8.60449C8.60449 14.5711 10.2834 16.25 12.3545 16.25V14.75ZM10.1045 12.5C10.1045 11.2574 11.1119 10.25 12.3545 10.25V8.75C10.2834 8.75 8.60449 10.4289 8.60449 12.5H10.1045ZM12.3545 10.25C13.5971 10.25 14.6045 11.2574 14.6045 12.5H16.1045C16.1045 10.4289 14.4256 8.75 12.3545 8.75V10.25ZM3.35449 13.25H5.35449V11.75H3.35449V13.25ZM5.88488 20.0303L7.88488 18.0303L6.82422 16.9697L4.82422 18.9697L5.88488 20.0303ZM11.6045 19.5V21.5H13.1045V19.5H11.6045ZM16.8242 18.0303L18.8242 20.0303L19.8848 18.9697L17.8848 16.9697L16.8242 18.0303ZM4.82416 6.03033L6.82416 8.03033L7.88482 6.96967L5.88482 4.96967L4.82416 6.03033ZM19.3545 13.25H21.3545V11.75H19.3545V13.25ZM17.8848 8.03033L19.8848 6.03033L18.8241 4.96967L16.8241 6.96967L17.8848 8.03033ZM11.6045 3.5V5.5H13.1045V3.5H11.6045Z" fill="white"/>
</svg>
