<svg width="386" height="814" viewBox="0 0 386 814" fill="none" xmlns="http://www.w3.org/2000/svg">
<g opacity="0.1">
<path d="M248 400C78 563.5 173 644 -64 712C-301 780 -376 572.313 -376 400C-376 227.687 -236.313 88 -64 88C108.313 88 418 236.5 248 400Z" fill="white" fill-opacity="0.15"/>
<path d="M-51.8651 754.294C9.94531 736.559 53.8455 717.004 86.6826 693.157C120.522 668.583 140.031 641.319 155.632 613.102C162.053 601.488 167.755 589.977 173.535 578.308C194.604 535.774 216.715 491.136 278.5 431.713C328.679 383.453 350.051 328.89 338.245 273.155C327.208 221.048 289.212 178.927 246.557 147.331C161.07 84.008 31.3369 44 -64 44C-260.613 44 -420 203.387 -420 400C-420 490.589 -400.603 596.608 -344.165 672.397C-315.304 711.153 -276.375 742.394 -225.847 758.17C-175.537 773.877 -117.427 773.105 -51.8651 754.294Z" stroke="white" stroke-opacity="0.06" stroke-width="88"/>
</g>
</svg>
